<svg xmlns="http://www.w3.org/2000/svg" xmlns:xlink="http://www.w3.org/1999/xlink" width="256" height="256" version="1.1" viewBox="0 0 256 256"><title>set-ios-info-plist-unified-stepicon</title><desc>Created with Sketch.</desc><defs><linearGradient id="linearGradient-1" x1="50%" x2="50%" y1="0%" y2="100%"><stop offset="0%" stop-color="#54C3FA"/><stop offset="100%" stop-color="#1586F5"/></linearGradient><rect id="path-2" width="256" height="256" x="0" y="0"/><linearGradient id="linearGradient-4" x1="132.409%" x2="-18.6%" y1="-11.098%" y2="109.263%"><stop offset="0%" stop-color="#FFF" stop-opacity=".399"/><stop offset="100%" stop-color="#FFF"/></linearGradient><linearGradient id="linearGradient-5" x1="50%" x2="70.782%" y1="0%" y2="100%"><stop offset="0%" stop-color="#135EA7" stop-opacity=".855"/><stop offset="100%" stop-color="#1E568F"/></linearGradient><linearGradient id="linearGradient-6" x1="-24.496%" x2="96.795%" y1="123.982%" y2="6.149%"><stop offset="0%" stop-color="#FFF" stop-opacity=".399"/><stop offset="100%" stop-color="#FFF"/></linearGradient></defs><g id="New-Icons" fill="none" fill-rule="evenodd" stroke="none" stroke-width="1"><g id="Set-iOS-info.plistlist-Unified"><g id="set-ios-info-plist-unified-stepicon"><mask id="mask-3" fill="#fff"><use xlink:href="#path-2"/></mask><use id="Rectangle" fill="url(#linearGradient-1)" xlink:href="#path-2"/><path id="Rectangle-6" fill="url(#linearGradient-4)" d="M69,37 L159.738281,37 L193,71.9585974 L193,211 C193,214.313708 190.313708,217 187,217 L69,217 C65.6862915,217 63,214.313708 63,211 L63,43 C63,39.6862915 65.6862915,37 69,37 Z" mask="url(#mask-3)"/><g id="icon-/-info" fill="url(#linearGradient-5)" mask="url(#mask-3)"><g transform="translate(86.000000, 73.000000)"><path id="Oval-6" fill-rule="nonzero" d="M42,73.2307692 C59.2482776,73.2307692 73.2307692,59.2482776 73.2307692,42 C73.2307692,24.7517224 59.2482776,10.7692308 42,10.7692308 C24.7517224,10.7692308 10.7692308,24.7517224 10.7692308,42 C10.7692308,59.2482776 24.7517224,73.2307692 42,73.2307692 Z M42,84 C18.8040405,84 0,65.1959595 0,42 C0,18.8040405 18.8040405,0 42,0 C65.1959595,0 84,18.8040405 84,42 C84,65.1959595 65.1959595,84 42,84 Z" style="mix-blend-mode:multiply"/><circle id="Oval-7" cx="42.269" cy="20.192" r="5.654" fill-rule="evenodd" style="mix-blend-mode:multiply"/><path id="Path-2" fill-rule="nonzero" d="M32.1474004,42.849132 L28.8438594,32.5991102 L40.3482295,28.8912977 C44.1327799,27.6715522 47.8885488,30.8335933 47.3315167,34.7706374 L44.4292538,55.2835264 L48.9856354,53.771089 L52.3783294,63.9919481 L39.5770965,68.2411668 C35.7839015,69.5002733 31.9893353,66.3337046 32.5492328,62.3764085 L35.4632492,41.7804472 L32.1474004,42.849132 Z" style="mix-blend-mode:multiply"/></g></g><path id="plist" fill="url(#linearGradient-5)" d="M87.025,180.1 L95.935,180.1 C100.39,180.1 103.225,183.07 103.225,186.985 C103.225,190.9 100.39,193.87 95.935,193.87 L93.1,193.87 L93.1,199 L87.025,199 L87.025,180.1 Z M95.53,185.5 L93.1,185.5 L93.1,188.47 L95.53,188.47 C96.475,188.47 97.15,187.795 97.15,186.985 C97.15,186.175 96.475,185.5 95.53,185.5 Z M120.7,199 L106.66,199 L106.66,180.1 L112.735,180.1 L112.735,193.465 L120.7,193.465 L120.7,199 Z M123.865,199 L123.865,180.1 L129.94,180.1 L129.94,199 L123.865,199 Z M141.88,193.06 C141.88,191.17 133.645,191.98 133.645,185.581 C133.645,182.53 136.48,179.56 141.205,179.56 C146.065,179.56 148.225,182.26 148.225,182.26 L144.715,185.905 C144.715,185.905 143.635,184.555 142.015,184.555 C140.935,184.555 140.395,185.095 140.395,185.77 C140.395,187.66 148.63,186.715 148.63,193.195 C148.63,196.516 145.795,199.54 140.8,199.54 C135.67,199.54 132.835,196.3 132.835,196.3 L136.345,192.79 C136.345,192.79 137.965,194.545 139.99,194.545 C141.205,194.545 141.88,193.87 141.88,193.06 Z M150.58,180.1 L166.645,180.1 L166.645,185.635 L161.65,185.635 L161.65,199 L155.575,199 L155.575,185.635 L150.58,185.635 L150.58,180.1 Z" mask="url(#mask-3)" style="mix-blend-mode:multiply"/><path id="Rectangle-6-Copy-2" fill="url(#linearGradient-6)" d="M158.731207,37.3828125 L192.784706,72.2668851 L164.731207,72.2668851 C161.417498,72.2668851 158.731207,69.5805936 158.731207,66.2668851 L158.731207,37.3828125 Z" mask="url(#mask-3)"/></g></g></g></svg>