<svg xmlns="http://www.w3.org/2000/svg" xmlns:xlink="http://www.w3.org/1999/xlink" width="256" height="256" version="1.1" viewBox="0 0 256 256"><title>deploy-to-bitrise-io-stepicon</title><desc>Created with Sketch.</desc><defs><linearGradient id="linearGradient-1" x1="0%" x2="100%" y1="100%" y2="0%"><stop offset="0%" stop-color="#0DD3C5"/><stop offset="100%" stop-color="#0D83CD"/></linearGradient><linearGradient id="linearGradient-2" x1="125.515%" x2="58.984%" y1="209.349%" y2="-17.703%"><stop offset="0%" stop-color="#FFF" stop-opacity=".399"/><stop offset="100%" stop-color="#FFF"/></linearGradient></defs><g id="New-Icons" fill="none" fill-rule="evenodd" stroke="none" stroke-width="1"><g id="Deploy-to-Bitrise.io"><g id="deploy-to-bitrise-io-stepicon"><rect id="Rectangle-path" width="256" height="256" x="0" y="0" fill="url(#linearGradient-1)" fill-rule="nonzero"/><path id="Path" fill="url(#linearGradient-2)" d="M136.610575,150.610588 L124.272961,156.432717 L98.7552097,130.914966 L103.938766,119.928962 L77.1767996,138.69157 C81.5214611,115.407364 90.9800385,97.9919364 105.552532,86.4452876 C112.548402,80.9020454 119.974814,76.9596968 127.831767,74.6182419 L137.565689,67.8268188 C159.401824,52.5916009 185.081476,43.8025657 211.673468,42.4629288 L212.780782,42.4071451 L212.724882,43.5167609 C211.385318,70.1073068 202.597164,95.7856424 187.363429,117.621047 L181.697972,125.741677 C179.460729,134.395453 175.319408,142.537149 169.27401,150.166766 C157.727362,164.73926 140.311934,174.197837 117.027728,178.542499 L136.610575,150.610588 Z"/><path id="Path" fill="url(#linearGradient-2)" d="M85.0562171,146.34372 C86.5224478,154.679453 88.3736185,159.964322 90.6097291,162.198326 C92.8458397,164.43233 98.4355215,166.581305 107.378775,168.645251 C96.3632198,171.715567 87.2633947,175.72385 80.0792992,180.670101 C72.8952038,185.616352 51.2642761,205.126127 15.1865162,239.199427 C47.3896418,204.984539 66.5014371,183.010166 72.5219023,173.276305 C78.5423674,163.542445 82.7204724,154.564917 85.0562171,146.34372 Z"/></g></g></g></svg>