<svg xmlns="http://www.w3.org/2000/svg" id="Layer_1" data-name="Layer 1" viewBox="0 0 256 256"><defs><style>.cls-1{fill:#c07b9e}.cls-2{fill:#fff}.cls-3{opacity:.5}.cls-4{opacity:.2}</style></defs><title>Artboard 105</title><rect width="256" height="256" class="cls-1"/><path d="M116.47,183.71H68.52A16.54,16.54,0,0,1,52,167.19V84.61A16.54,16.54,0,0,1,68.52,68.08h47.95A16.54,16.54,0,0,1,133,84.61v82.58A16.54,16.54,0,0,1,116.47,183.71ZM68.52,73.08A11.54,11.54,0,0,0,57,84.61v82.58a11.54,11.54,0,0,0,11.52,11.52h47.95A11.54,11.54,0,0,0,128,167.19V84.61a11.54,11.54,0,0,0-11.52-11.52Z" class="cls-2"/><path d="M144.91,183.71a2.5,2.5,0,0,1,0-5,12.47,12.47,0,0,0,12.46-12.46V85.55a12.47,12.47,0,0,0-12.46-12.46,2.5,2.5,0,0,1,0-5,17.48,17.48,0,0,1,17.46,17.46v80.71A17.48,17.48,0,0,1,144.91,183.71Z" class="cls-2"/><g class="cls-3"><path d="M173.53,183.71a2.5,2.5,0,0,1,0-5A12.47,12.47,0,0,0,186,166.25V85.55a12.47,12.47,0,0,0-12.46-12.46,2.5,2.5,0,0,1,0-5A17.48,17.48,0,0,1,191,85.55v80.71A17.48,17.48,0,0,1,173.53,183.71Z" class="cls-2"/></g><g class="cls-4"><path d="M202.16,183.71a2.5,2.5,0,0,1,0-5,12.48,12.48,0,0,0,12.46-12.46V85.55a12.48,12.48,0,0,0-12.46-12.46,2.5,2.5,0,0,1,0-5,17.48,17.48,0,0,1,17.46,17.46v80.71A17.48,17.48,0,0,1,202.16,183.71Z" class="cls-2"/></g><circle cx="92.25" cy="158.44" r="6.62" class="cls-2"/></svg>