<svg xmlns="http://www.w3.org/2000/svg" xmlns:svg="http://www.w3.org/2000/svg" id="svg36" width="256" height="256" alt="App Center" version="1.1" viewBox="0 0 256 256"><metadata id="metadata42"/><rect id="rect1935" width="256" height="256" x="0" y="0" rx="37.5" ry="37.5" style="fill:#cb2e62;fill-opacity:1;stroke-width:.5"/><g id="g34" style="fill:#fff;fill-rule:nonzero"><path id="path30" d="M162.0000006 176.73333302C162.0000006 176.73333302 196.0000008 181.83333305 196.0000008 181.83333305C196.0000008 181.83333305 162.0000006 195.9999998 162.0000006 195.9999998C162.0000006 195.9999998 60.0 161.9999996 60.0 161.9999996C60.0 161.9999996 162.0000006 176.73333302 162.0000006 176.73333302C162.0000006 176.73333302 162.0000006 59.999999 162.0000006 59.999999C162.0000006 59.999999 196.0000008 74.16666575 196.0000008 74.16666575C196.0000008 74.16666575 196.0000008 181.83333305 196.0000008 181.83333305C196.0000008 181.83333305 162.0000006 176.73333302 162.0000006 176.73333302" style="fill:#fff"/><path id="path32" d="M94.0000002 82.6666658C94.0000002 82.6666658 107.03333361 85.49999915 107.03333361 85.49999915C107.03333361 85.49999915 107.03333361 105.89999927 107.03333361 105.89999927C107.03333361 105.89999927 128.0000004 91.16666585 128.0000004 91.16666585C128.0000004 91.16666585 128.0000004 108.16666595 128.0000004 108.16666595C128.0000004 108.16666595 106.46666694 119.49999935 106.46666694 119.49999935C106.46666694 119.49999935 128.0000004 130.83333275 128.0000004 130.83333275C128.0000004 130.83333275 128.0000004 147.83333285 128.0000004 147.83333285C128.0000004 147.83333285 106.46666694 133.09999943 106.46666694 133.09999943C106.46666694 133.09999943 106.46666694 153.49999955 106.46666694 153.49999955C106.46666694 153.49999955 94.0000002 156.3333329 94.0000002 156.3333329C94.0000002 156.3333329 71.3333334 136.49999945 71.3333334 136.49999945C71.3333334 136.49999945 71.3333334 127.9999994 71.3333334 127.9999994C71.3333334 127.9999994 84.36666681 119.49999935 84.36666681 119.49999935C84.36666681 119.49999935 71.3333334 110.9999993 71.3333334 110.9999993C71.3333334 110.9999993 71.3333334 102.49999925 71.3333334 102.49999925C71.3333334 102.49999925 94.0000002 82.6666658 94.0000002 82.6666658M78.13333344 105.89999927C78.13333344 105.89999927 94.0000002 113.83333265 94.0000002 113.83333265C94.0000002 113.83333265 94.0000002 93.9999992 94.0000002 93.9999992C94.0000002 93.9999992 78.13333344 105.89999927 78.13333344 105.89999927M94.0000002 144.9999995C94.0000002 144.9999995 94.0000002 125.16666605 94.0000002 125.16666605C94.0000002 125.16666605 78.13333344 133.09999943 78.13333344 133.09999943C78.13333344 133.09999943 94.0000002 144.9999995 94.0000002 144.9999995M128.0000004 91.16666585C128.0000004 91.16666585 145.0000005 96.83333255 145.0000005 96.83333255C145.0000005 96.83333255 145.0000005 142.16666615 145.0000005 142.16666615C145.0000005 142.16666615 128.0000004 147.83333285 128.0000004 147.83333285C128.0000004 147.83333285 128.0000004 91.16666585 128.0000004 91.16666585" style="fill:#fff"/></g></svg>