<svg xmlns="http://www.w3.org/2000/svg" xmlns:xlink="http://www.w3.org/1999/xlink" width="256" height="256" version="1.1" viewBox="0 0 256 256"><title>zip-directory-and-export-its-path</title><desc>Created with Sketch.</desc><defs><linearGradient id="linearGradient-1" x1="50%" x2="50%" y1=".689%" y2="97.648%"><stop offset="0%" stop-color="#64C9EF"/><stop offset="100%" stop-color="#2292BD"/></linearGradient><linearGradient id="linearGradient-2" x1="132.409%" x2="-18.6%" y1="4.005%" y2="94.614%"><stop offset="0%" stop-color="#FFF" stop-opacity=".399"/><stop offset="100%" stop-color="#FFF"/></linearGradient><path id="path-3" d="M17.3333332,17.3333332 L17.3333332,86.6666664 L78.0000001,86.6666664 L78.0000001,95.3333335 L17.3333332,95.3333335 C12.5666665,95.3333335 8.66666645,91.4333335 8.66666645,86.6666664 L8.66666645,17.3333332 C8.66666645,12.5666665 12.5666665,8.66666645 17.3333332,8.66666645 L78.0000001,8.66666645 L78.0000001,17.3333332 L17.3333332,17.3333332 Z M78.4333335,47.6666666 L67.1666667,36.3999999 L73.2333334,30.3333332 L94.4666669,51.5666667 L73.2333334,72.8000001 L67.1666667,66.7333334 L78.0000001,56.3333332 L43.3333333,56.3333332 L43.3333333,47.6666666 L78.4333335,47.6666666 Z"/></defs><g id="New-Icons" fill="none" fill-rule="evenodd" stroke="none" stroke-width="1"><g id="Zip-Directory-and-Export-its-Path"><g id="zip-directory-and-export-its-path"><rect id="Rectangle-path" width="256" height="256" x="0" y="0" fill="url(#linearGradient-1)" fill-rule="nonzero"/><path id="Rectangle-12" fill="url(#linearGradient-2)" d="M56,53 L105.658482,53 C107.886777,53 109.93154,54.2348904 110.968794,56.2070476 L118.216903,69.9880638 C119.254157,71.960221 121.29892,73.1951114 123.527215,73.1951114 L180,73.1951114 C183.313708,73.1951114 186,75.8814029 186,79.1951114 L186,165 C186,168.313708 183.313708,171 180,171 L56,171 C52.6862915,171 50,168.313708 50,165 L50,59 C50,55.6862915 52.6862915,53 56,53 Z"/><text id="ZIP" fill="#760FC3" font-family="TTNorms-Black, TT Norms" font-size="27" font-weight="700" letter-spacing="3" style="mix-blend-mode:multiply"><tspan x="60" y="161.139">ZIP</tspan></text><g id="icons-/-logout" transform="translate(128.000000, 99.138672)" style="mix-blend-mode:multiply"><mask id="mask-4" fill="#fff"><use xlink:href="#path-3"/></mask><use fill="#760FC3" fill-rule="evenodd" xlink:href="#path-3"/></g></g></g></g></svg>