<svg xmlns="http://www.w3.org/2000/svg" xmlns:xlink="http://www.w3.org/1999/xlink" width="255" height="256" version="1.1" viewBox="0 0 255 256"><title>Bitbucket server post build status</title><defs><linearGradient id="linearGradient-1" x1="108.633%" x2="46.927%" y1="29.898%" y2="65.987%"><stop offset="18%" stop-color="#0052CC"/><stop offset="100%" stop-color="#2684FF"/></linearGradient></defs><g fill="none" fill-rule="evenodd" stroke="none" stroke-width="1"><g transform="translate(-1.000000, 0.000000)"><rect width="254.012" height="256" x=".998" y="0" fill="#FFF" fill-rule="nonzero" transform="translate(128.004045, 128.000000) rotate(-180.000000) translate(-128.004045, -128.000000)"/><polygon points="95.956 136 120.972 136 127.01 100 89.305 100"/><path id="Shape" fill="#2684FF" fill-rule="nonzero" d="M52.4874831,63.999693 C51.3604765,63.9856585 50.2847239,64.4744414 49.5487954,65.3355537 C48.812867,66.1966661 48.492094,67.3419622 48.6725238,68.4642171 L64.8670262,167.631985 C65.2835246,170.136953 67.4229849,171.978635 69.9409221,172.000315 L147.632569,172.000315 C149.522472,172.024213 151.145275,170.649186 151.447529,168.7672 L167.642031,68.483458 C167.822461,67.3612031 167.501687,66.215907 166.765759,65.3547947 C166.029831,64.4936823 164.954078,64.0048994 163.827071,64.0195616 L52.4874831,63.999693 Z M120.679881,135.672796 L95.8826455,135.672796 L89.1683171,100.28872 L126.688442,100.28872 L120.679881,135.672796 Z"/><path id="Path" fill="url(#linearGradient-1)" fill-rule="nonzero" d="M161.737861,100 L126.171429,100 L120.202635,135.033113 L95.5695171,135.033113 L66.4834895,169.742374 C67.4053881,170.543816 68.5807676,170.989478 69.7994862,171.000312 L146.995888,171.000312 C148.873283,171.023973 150.485345,169.662584 150.785598,167.799265 L161.737861,100 Z"/><path id="Shape" fill="#36B37E" d="M171.680717,199.045163 C174.299305,196.438713 174.299305,192.225731 171.680717,189.619282 L144.892099,162.954837 C142.273512,160.348388 138.04091,160.348388 135.422323,162.954837 L122.028014,176.287059 C119.409427,178.893509 119.409427,183.106491 122.028014,185.712941 C124.646602,188.31939 128.879203,188.31939 131.497791,185.712941 L140.157211,177.093659 L162.210941,199.045163 C164.829528,201.651612 169.06213,201.651612 171.680717,199.045163 M146.854366,143 C126.064851,143 109.14951,160.04775 109.14951,181 C109.14951,201.95225 126.064851,219 146.854366,219 C167.64388,219 184.559221,201.95225 184.559221,181 C184.559221,160.04775 167.64388,143 146.854366,143 M146.854366,228 C121.097881,228 100.219413,206.9581 100.219413,181 C100.219413,155.0419 121.097881,134 146.854366,134 C172.61085,134 193.489319,155.0419 193.489319,181 C193.489319,206.9581 172.61085,228 146.854366,228" transform="translate(146.854366, 181.000000) scale(-1, 1) rotate(-180.000000) translate(-146.854366, -181.000000)"/></g></g></svg>