<svg xmlns="http://www.w3.org/2000/svg" xmlns:xlink="http://www.w3.org/1999/xlink" width="256" height="256" version="1.1" viewBox="0 0 256 256"><title>Cordova iOS</title><desc>Created with Sketch.</desc><defs><linearGradient id="linearGradient-1" x1="50%" x2="50%" y1="0%" y2="100%"><stop offset="0%" stop-color="#566E85"/><stop offset="100%" stop-color="#2B3845"/></linearGradient></defs><g id="New-Icons" fill="none" fill-rule="evenodd" stroke="none" stroke-width="1"><g id="Cordova-iOS"><g><rect id="Rectangle" width="256" height="256" x="0" y="0" fill="url(#linearGradient-1)"/><g id="cordova-logo" transform="translate(37.000000, 41.000000)"><g id="Group"><path id="logo" fill="#FFF" d="M1.42108547e-14,66.6696393 L41.591618,1.56319402e-13 L141.408382,1.56319402e-13 L183,66.6696393 L1.42108547e-14,66.6696393 Z M1.42108547e-14,66.6696393 L1.42108547e-14,66.6579346 L183,66.6579346 L166.362573,175 L16.637427,175 L1.42108547e-14,66.6696393 Z M46.2705288,175 L44.1923126,149.998885 L58.7476243,149.998885 L60.8258405,175 L46.2705288,175 Z M136.729471,175 L138.807687,149.998885 L124.252376,149.998885 L122.174159,175 L136.729471,175 Z M33.2748541,66.6696393 L49.9122811,33.3348196 L133.095517,33.3348196 L149.729045,66.6696393 L33.2748541,66.6696393 Z M33.2748541,66.6696393 L41.591618,133.339279 L141.408382,133.339279 L149.725146,66.6696393 L33.2748541,66.6696393 Z"/><polygon id="logo-path" fill="#FFF" points="76.945 31.251 74.866 45.835 108.137 45.835 106.059 31.251 76.945 31.251"/><path id="logo-path" fill="#4CC2E4" d="M118.532407,80.192402 C120.828973,80.192402 122.692739,87.1332546 122.692739,95.6932492 C122.692739,104.253244 120.828973,111.194096 118.532407,111.194096 C116.235842,111.194096 114.375975,104.253244 114.375975,95.6932492 C114.375975,87.1332546 116.235842,80.192402 118.532407,80.192402 Z"/><path id="logo-path" fill="#4CC2E4" d="M66.0272297,81.4838142 C68.3237951,81.4838142 70.1875613,88.4246667 70.1875613,96.9846613 C70.1875613,105.544656 68.3276942,112.485509 66.0272297,112.485509 C63.7267652,112.485509 61.8668982,105.552459 61.8668982,97.0041691 C61.8668982,88.4558791 63.7306643,81.5033219 66.0272297,81.5033219 L66.0272297,81.4838142 Z"/></g></g></g></g></g></svg>