<svg xmlns="http://www.w3.org/2000/svg" id="Layer_1" data-name="Layer 1" viewBox="0 0 256 256"><defs><style>.cls-1{fill:#4d4d4d}.cls-2{fill:#77d065}</style></defs><title>icon</title><rect width="255.92" height="255.92" x=".04" y=".04" class="cls-1"/><path d="M143,65.64H55a3,3,0,0,1,0-6h88a3,3,0,0,1,0,6Z" class="cls-2"/><path d="M114,131.64H55a3,3,0,0,1,0-6h59a3,3,0,1,1,0,6Z" class="cls-2"/><path d="M201,131.64H135a3,3,0,0,1,0-6h66a3,3,0,1,1,0,6Z" class="cls-2"/><path d="M84,98.64H55a3,3,0,0,1,0-6H84a3,3,0,0,1,0,6Z" class="cls-2"/><path d="M179,98.64H104a3,3,0,1,1,0-6h75a3,3,0,0,1,0,6Z" class="cls-2"/><path d="M114,195.64H55a3,3,0,0,1,0-6h59a3,3,0,1,1,0,6Z" class="cls-2"/><path d="M201,195.64H133a3,3,0,0,1,0-6h68a3,3,0,0,1,0,6Z" class="cls-2"/><path d="M84,161.64H55a3,3,0,0,1,0-6H84a3,3,0,0,1,0,6Z" class="cls-2"/><path d="M179,161.64H104a3,3,0,0,1,0-6h75a3,3,0,0,1,0,6Z" class="cls-2"/><path d="M201,65.64H167a3,3,0,0,1,0-6h34a3,3,0,0,1,0,6Z" class="cls-2"/></svg>