<svg xmlns="http://www.w3.org/2000/svg" xmlns:xlink="http://www.w3.org/1999/xlink" width="256" height="256" version="1.1" viewBox="0 0 256 256"><title>generic-file-storage-stepicon</title><desc>Created with Sketch.</desc><defs><linearGradient id="linearGradient-1" x1="0%" x2="100%" y1="100%" y2="0%"><stop offset="0%" stop-color="#0DD3C5"/><stop offset="100%" stop-color="#0D83CD"/></linearGradient><linearGradient id="linearGradient-2" x1="132.409%" x2="-18.6%" y1="-11.098%" y2="109.263%"><stop offset="0%" stop-color="#FFF" stop-opacity=".399"/><stop offset="100%" stop-color="#FFF"/></linearGradient></defs><g id="New-Icons" fill="none" fill-rule="evenodd" stroke="none" stroke-width="1"><g id="Generic-File-Storage"><g id="generic-file-storage-stepicon"><rect id="Rectangle-path" width="256" height="256" x="0" y="0" fill="url(#linearGradient-1)" fill-rule="nonzero"/><path id="Rectangle-12" fill="url(#linearGradient-2)" d="M56,48.8613281 L114.378348,48.8613281 C116.605634,48.8613281 118.649644,50.0951109 119.687351,52.0658892 L128.496242,68.795439 C129.533949,70.7662172 131.57796,72 133.805246,72 L200,72 C203.313708,72 206,74.6862915 206,78 L206,178.060547 C206,181.374255 203.313708,184.060547 200,184.060547 L56,184.060547 C52.6862915,184.060547 50,181.374255 50,178.060547 L50,54.8613281 C50,51.5476196 52.6862915,48.8613281 56,48.8613281 Z"/><polygon id="icon-/-login" fill="#760FC3" points="173.602 92.398 173.602 211.602 153.602 211.602 153.602 92.398" style="mix-blend-mode:multiply"/><polygon id="icon-/-login-copy" fill="#760FC3" points="153 62 173 62 173 82 153 82" style="mix-blend-mode:multiply"/><polygon id="icon-/-login-copy-2" fill="#760FC3" points="153 32 173 32 173 52 153 52" style="mix-blend-mode:multiply"/><polygon id="Rectangle-2" fill="#760FC3" points="163.13 203.235 199.972 166.394 214.687 181.109 163.109 232.687 111.606 181.185 126.343 166.448" style="mix-blend-mode:multiply"/></g></g></g></svg>