<svg xmlns="http://www.w3.org/2000/svg" xmlns:xlink="http://www.w3.org/1999/xlink" width="256" height="256" version="1.1" viewBox="0 0 256 256"><title>Flutter Executes</title><desc>Created with Sketch.</desc><defs><linearGradient id="linearGradient-1" x1="50%" x2="50%" y1="98.494%" y2="0%"><stop offset="0%" stop-color="#4082C7"/><stop offset="100%" stop-color="#4EC5F7"/></linearGradient><polygon id="path-2" points="82 164.75 69.8 177 21 128 69.8 79 82 91.25 45.4 128"/></defs><g id="Flutter-Executes" fill="none" fill-rule="evenodd" stroke="none" stroke-width="1"><rect id="Rectangle" width="256" height="256" x="0" y="0" fill="url(#linearGradient-1)"/><g id="Group-12" fill="#FFF" fill-opacity=".9" transform="translate(56.000000, 43.000000)"><polygon id="Fill-1" points="65.472 97.094 137.469 169.411 84.602 169.411 38.928 123.494"/><polygon id="Fill-3" points=".354 84.6 27.001 111.211 139.025 0 85.695 0"/><polygon id="Fill-7" points="38.929 123.494 65.541 150.106 138.035 77.788 84.812 77.788"/></g><polygon id="Mask" fill="#17579B" points="233 164.75 220.8 177 172 128 220.8 79 233 91.25 196.4 128" transform="translate(202.500000, 128.000000) scale(-1, 1) translate(-202.500000, -128.000000)" style="mix-blend-mode:multiply"/><mask id="mask-3" fill="#fff"><use xlink:href="#path-2"/></mask><use id="icons-/-chevron-left" fill="#17579B" xlink:href="#path-2" style="mix-blend-mode:multiply"/></g></svg>