<svg xmlns="http://www.w3.org/2000/svg" width="250" height="250"><g><title>background</title><rect id="canvas_background" width="252" height="252" x="-1" y="-1" fill="none"/></g><g><title>Layer 1</title><rect id="svg_1" width="200" height="200" x="26" y="24" fill="#fff" shape-rendering="optimizeSpeed"/><rect id="svg_2" width="7" height="7" x="38" y="36" fill="#000" shape-rendering="optimizeSpeed"/><rect id="svg_3" width="7" height="7" x="45" y="36" fill="#000" shape-rendering="optimizeSpeed"/><rect id="svg_4" width="7" height="7" x="52" y="36" fill="#000" shape-rendering="optimizeSpeed"/><rect id="svg_5" width="7" height="7" x="59" y="36" fill="#000" shape-rendering="optimizeSpeed"/><rect id="svg_6" width="7" height="7" x="66" y="36" fill="#000" shape-rendering="optimizeSpeed"/><rect id="svg_7" width="7" height="7" x="73" y="36" fill="#000" shape-rendering="optimizeSpeed"/><rect id="svg_8" width="7" height="7" x="80" y="36" fill="#000" shape-rendering="optimizeSpeed"/><rect id="svg_9" width="7" height="7" x="94" y="36" fill="#000" shape-rendering="optimizeSpeed"/><rect id="svg_10" width="7" height="7" x="101" y="36" fill="#000" shape-rendering="optimizeSpeed"/><rect id="svg_11" width="7" height="7" x="136" y="36" fill="#000" shape-rendering="optimizeSpeed"/><rect id="svg_12" width="7" height="7" x="150" y="36" fill="#000" shape-rendering="optimizeSpeed"/><rect id="svg_13" width="7" height="7" x="164" y="36" fill="#000" shape-rendering="optimizeSpeed"/><rect id="svg_14" width="7" height="7" x="171" y="36" fill="#000" shape-rendering="optimizeSpeed"/><rect id="svg_15" width="7" height="7" x="178" y="36" fill="#000" shape-rendering="optimizeSpeed"/><rect id="svg_16" width="7" height="7" x="185" y="36" fill="#000" shape-rendering="optimizeSpeed"/><rect id="svg_17" width="7" height="7" x="192" y="36" fill="#000" shape-rendering="optimizeSpeed"/><rect id="svg_18" width="7" height="7" x="199" y="36" fill="#000" shape-rendering="optimizeSpeed"/><rect id="svg_19" width="7" height="7" x="206" y="36" fill="#000" shape-rendering="optimizeSpeed"/><rect id="svg_20" width="7" height="7" x="38" y="43" fill="#000" shape-rendering="optimizeSpeed"/><rect id="svg_21" width="7" height="7" x="80" y="43" fill="#000" shape-rendering="optimizeSpeed"/><rect id="svg_22" width="7" height="7" x="129" y="43" fill="#000" shape-rendering="optimizeSpeed"/><rect id="svg_23" width="7" height="7" x="136" y="43" fill="#000" shape-rendering="optimizeSpeed"/><rect id="svg_24" width="7" height="7" x="150" y="43" fill="#000" shape-rendering="optimizeSpeed"/><rect id="svg_25" width="7" height="7" x="164" y="43" fill="#000" shape-rendering="optimizeSpeed"/><rect id="svg_26" width="7" height="7" x="206" y="43" fill="#000" shape-rendering="optimizeSpeed"/><rect id="svg_27" width="7" height="7" x="38" y="50" fill="#000" shape-rendering="optimizeSpeed"/><rect id="svg_28" width="7" height="7" x="52" y="50" fill="#000" shape-rendering="optimizeSpeed"/><rect id="svg_29" width="7" height="7" x="59" y="50" fill="#000" shape-rendering="optimizeSpeed"/><rect id="svg_30" width="7" height="7" x="66" y="50" fill="#000" shape-rendering="optimizeSpeed"/><rect id="svg_31" width="7" height="7" x="80" y="50" fill="#000" shape-rendering="optimizeSpeed"/><rect id="svg_32" width="7" height="7" x="94" y="50" fill="#000" shape-rendering="optimizeSpeed"/><rect id="svg_33" width="7" height="7" x="115" y="50" fill="#000" shape-rendering="optimizeSpeed"/><rect id="svg_34" width="7" height="7" x="122" y="50" fill="#000" shape-rendering="optimizeSpeed"/><rect id="svg_35" width="7" height="7" x="129" y="50" fill="#000" shape-rendering="optimizeSpeed"/><rect id="svg_36" width="7" height="7" x="136" y="50" fill="#000" shape-rendering="optimizeSpeed"/><rect id="svg_37" width="7" height="7" x="150" y="50" fill="#000" shape-rendering="optimizeSpeed"/><rect id="svg_38" width="7" height="7" x="164" y="50" fill="#000" shape-rendering="optimizeSpeed"/><rect id="svg_39" width="7" height="7" x="178" y="50" fill="#000" shape-rendering="optimizeSpeed"/><rect id="svg_40" width="7" height="7" x="185" y="50" fill="#000" shape-rendering="optimizeSpeed"/><rect id="svg_41" width="7" height="7" x="192" y="50" fill="#000" shape-rendering="optimizeSpeed"/><rect id="svg_42" width="7" height="7" x="206" y="50" fill="#000" shape-rendering="optimizeSpeed"/><rect id="svg_43" width="7" height="7" x="38" y="57" fill="#000" shape-rendering="optimizeSpeed"/><rect id="svg_44" width="7" height="7" x="52" y="57" fill="#000" shape-rendering="optimizeSpeed"/><rect id="svg_45" width="7" height="7" x="59" y="57" fill="#000" shape-rendering="optimizeSpeed"/><rect id="svg_46" width="7" height="7" x="66" y="57" fill="#000" shape-rendering="optimizeSpeed"/><rect id="svg_47" width="7" height="7" x="80" y="57" fill="#000" shape-rendering="optimizeSpeed"/><rect id="svg_48" width="7" height="7" x="94" y="57" fill="#000" shape-rendering="optimizeSpeed"/><rect id="svg_49" width="7" height="7" x="101" y="57" fill="#000" shape-rendering="optimizeSpeed"/><rect id="svg_50" width="7" height="7" x="115" y="57" fill="#000" shape-rendering="optimizeSpeed"/><rect id="svg_51" width="7" height="7" x="129" y="57" fill="#000" shape-rendering="optimizeSpeed"/><rect id="svg_52" width="7" height="7" x="136" y="57" fill="#000" shape-rendering="optimizeSpeed"/><rect id="svg_53" width="7" height="7" x="164" y="57" fill="#000" shape-rendering="optimizeSpeed"/><rect id="svg_54" width="7" height="7" x="178" y="57" fill="#000" shape-rendering="optimizeSpeed"/><rect id="svg_55" width="7" height="7" x="185" y="57" fill="#000" shape-rendering="optimizeSpeed"/><rect id="svg_56" width="7" height="7" x="192" y="57" fill="#000" shape-rendering="optimizeSpeed"/><rect id="svg_57" width="7" height="7" x="206" y="57" fill="#000" shape-rendering="optimizeSpeed"/><rect id="svg_58" width="7" height="7" x="38" y="64" fill="#000" shape-rendering="optimizeSpeed"/><rect id="svg_59" width="7" height="7" x="52" y="64" fill="#000" shape-rendering="optimizeSpeed"/><rect id="svg_60" width="7" height="7" x="59" y="64" fill="#000" shape-rendering="optimizeSpeed"/><rect id="svg_61" width="7" height="7" x="66" y="64" fill="#000" shape-rendering="optimizeSpeed"/><rect id="svg_62" width="7" height="7" x="80" y="64" fill="#000" shape-rendering="optimizeSpeed"/><rect id="svg_63" width="7" height="7" x="94" y="64" fill="#000" shape-rendering="optimizeSpeed"/><rect id="svg_64" width="7" height="7" x="101" y="64" fill="#000" shape-rendering="optimizeSpeed"/><rect id="svg_65" width="7" height="7" x="108" y="64" fill="#000" shape-rendering="optimizeSpeed"/><rect id="svg_66" width="7" height="7" x="115" y="64" fill="#000" shape-rendering="optimizeSpeed"/><rect id="svg_67" width="7" height="7" x="136" y="64" fill="#000" shape-rendering="optimizeSpeed"/><rect id="svg_68" width="7" height="7" x="143" y="64" fill="#000" shape-rendering="optimizeSpeed"/><rect id="svg_69" width="7" height="7" x="150" y="64" fill="#000" shape-rendering="optimizeSpeed"/><rect id="svg_70" width="7" height="7" x="164" y="64" fill="#000" shape-rendering="optimizeSpeed"/><rect id="svg_71" width="7" height="7" x="178" y="64" fill="#000" shape-rendering="optimizeSpeed"/><rect id="svg_72" width="7" height="7" x="185" y="64" fill="#000" shape-rendering="optimizeSpeed"/><rect id="svg_73" width="7" height="7" x="192" y="64" fill="#000" shape-rendering="optimizeSpeed"/><rect id="svg_74" width="7" height="7" x="206" y="64" fill="#000" shape-rendering="optimizeSpeed"/><rect id="svg_75" width="7" height="7" x="38" y="71" fill="#000" shape-rendering="optimizeSpeed"/><rect id="svg_76" width="7" height="7" x="80" y="71" fill="#000" shape-rendering="optimizeSpeed"/><rect id="svg_77" width="7" height="7" x="101" y="71" fill="#000" shape-rendering="optimizeSpeed"/><rect id="svg_78" width="7" height="7" x="122" y="71" fill="#000" shape-rendering="optimizeSpeed"/><rect id="svg_79" width="7" height="7" x="129" y="71" fill="#000" shape-rendering="optimizeSpeed"/><rect id="svg_80" width="7" height="7" x="136" y="71" fill="#000" shape-rendering="optimizeSpeed"/><rect id="svg_81" width="7" height="7" x="150" y="71" fill="#000" shape-rendering="optimizeSpeed"/><rect id="svg_82" width="7" height="7" x="164" y="71" fill="#000" shape-rendering="optimizeSpeed"/><rect id="svg_83" width="7" height="7" x="206" y="71" fill="#000" shape-rendering="optimizeSpeed"/><rect id="svg_84" width="7" height="7" x="38" y="78" fill="#000" shape-rendering="optimizeSpeed"/><rect id="svg_85" width="7" height="7" x="45" y="78" fill="#000" shape-rendering="optimizeSpeed"/><rect id="svg_86" width="7" height="7" x="52" y="78" fill="#000" shape-rendering="optimizeSpeed"/><rect id="svg_87" width="7" height="7" x="59" y="78" fill="#000" shape-rendering="optimizeSpeed"/><rect id="svg_88" width="7" height="7" x="66" y="78" fill="#000" shape-rendering="optimizeSpeed"/><rect id="svg_89" width="7" height="7" x="73" y="78" fill="#000" shape-rendering="optimizeSpeed"/><rect id="svg_90" width="7" height="7" x="80" y="78" fill="#000" shape-rendering="optimizeSpeed"/><rect id="svg_91" width="7" height="7" x="94" y="78" fill="#000" shape-rendering="optimizeSpeed"/><rect id="svg_92" width="7" height="7" x="108" y="78" fill="#000" shape-rendering="optimizeSpeed"/><rect id="svg_93" width="7" height="7" x="122" y="78" fill="#000" shape-rendering="optimizeSpeed"/><rect id="svg_94" width="7" height="7" x="136" y="78" fill="#000" shape-rendering="optimizeSpeed"/><rect id="svg_95" width="7" height="7" x="150" y="78" fill="#000" shape-rendering="optimizeSpeed"/><rect id="svg_96" width="7" height="7" x="164" y="78" fill="#000" shape-rendering="optimizeSpeed"/><rect id="svg_97" width="7" height="7" x="171" y="78" fill="#000" shape-rendering="optimizeSpeed"/><rect id="svg_98" width="7" height="7" x="178" y="78" fill="#000" shape-rendering="optimizeSpeed"/><rect id="svg_99" width="7" height="7" x="185" y="78" fill="#000" shape-rendering="optimizeSpeed"/><rect id="svg_100" width="7" height="7" x="192" y="78" fill="#000" shape-rendering="optimizeSpeed"/><rect id="svg_101" width="7" height="7" x="199" y="78" fill="#000" shape-rendering="optimizeSpeed"/><rect id="svg_102" width="7" height="7" x="206" y="78" fill="#000" shape-rendering="optimizeSpeed"/><rect id="svg_103" width="7" height="7" x="101" y="85" fill="#000" shape-rendering="optimizeSpeed"/><rect id="svg_104" width="7" height="7" x="115" y="85" fill="#000" shape-rendering="optimizeSpeed"/><rect id="svg_105" width="7" height="7" x="143" y="85" fill="#000" shape-rendering="optimizeSpeed"/><rect id="svg_106" width="7" height="7" x="38" y="92" fill="#000" shape-rendering="optimizeSpeed"/><rect id="svg_107" width="7" height="7" x="45" y="92" fill="#000" shape-rendering="optimizeSpeed"/><rect id="svg_108" width="7" height="7" x="52" y="92" fill="#000" shape-rendering="optimizeSpeed"/><rect id="svg_109" width="7" height="7" x="59" y="92" fill="#000" shape-rendering="optimizeSpeed"/><rect id="svg_110" width="7" height="7" x="80" y="92" fill="#000" shape-rendering="optimizeSpeed"/><rect id="svg_111" width="7" height="7" x="94" y="92" fill="#000" shape-rendering="optimizeSpeed"/><rect id="svg_112" width="7" height="7" x="157" y="92" fill="#000" shape-rendering="optimizeSpeed"/><rect id="svg_113" width="7" height="7" x="178" y="92" fill="#000" shape-rendering="optimizeSpeed"/><rect id="svg_114" width="7" height="7" x="185" y="92" fill="#000" shape-rendering="optimizeSpeed"/><rect id="svg_115" width="7" height="7" x="192" y="92" fill="#000" shape-rendering="optimizeSpeed"/><rect id="svg_116" width="7" height="7" x="206" y="92" fill="#000" shape-rendering="optimizeSpeed"/><rect id="svg_117" width="7" height="7" x="38" y="99" fill="#000" shape-rendering="optimizeSpeed"/><rect id="svg_118" width="7" height="7" x="52" y="99" fill="#000" shape-rendering="optimizeSpeed"/><rect id="svg_119" width="7" height="7" x="101" y="99" fill="#000" shape-rendering="optimizeSpeed"/><rect id="svg_120" width="7" height="7" x="129" y="99" fill="#000" shape-rendering="optimizeSpeed"/><rect id="svg_121" width="7" height="7" x="150" y="99" fill="#000" shape-rendering="optimizeSpeed"/><rect id="svg_122" width="7" height="7" x="157" y="99" fill="#000" shape-rendering="optimizeSpeed"/><rect id="svg_123" width="7" height="7" x="171" y="99" fill="#000" shape-rendering="optimizeSpeed"/><rect id="svg_124" width="7" height="7" x="199" y="99" fill="#000" shape-rendering="optimizeSpeed"/><rect id="svg_125" width="7" height="7" x="59" y="106" fill="#000" shape-rendering="optimizeSpeed"/><rect id="svg_126" width="7" height="7" x="66" y="106" fill="#000" shape-rendering="optimizeSpeed"/><rect id="svg_127" width="7" height="7" x="73" y="106" fill="#000" shape-rendering="optimizeSpeed"/><rect id="svg_128" width="7" height="7" x="80" y="106" fill="#000" shape-rendering="optimizeSpeed"/><rect id="svg_129" width="7" height="7" x="129" y="106" fill="#000" shape-rendering="optimizeSpeed"/><rect id="svg_130" width="7" height="7" x="171" y="106" fill="#000" shape-rendering="optimizeSpeed"/><rect id="svg_131" width="7" height="7" x="45" y="113" fill="#000" shape-rendering="optimizeSpeed"/><rect id="svg_132" width="7" height="7" x="52" y="113" fill="#000" shape-rendering="optimizeSpeed"/><rect id="svg_133" width="7" height="7" x="59" y="113" fill="#000" shape-rendering="optimizeSpeed"/><rect id="svg_134" width="7" height="7" x="156" y="175" fill="#000" shape-rendering="optimizeSpeed"/><rect id="svg_135" width="7" height="7" x="94" y="113" fill="#000" shape-rendering="optimizeSpeed"/><rect id="svg_136" width="7" height="7" x="115" y="113" fill="#000" shape-rendering="optimizeSpeed"/><rect id="svg_137" width="7" height="7" x="122" y="113" fill="#000" shape-rendering="optimizeSpeed"/><rect id="svg_138" width="7" height="7" x="129" y="113" fill="#000" shape-rendering="optimizeSpeed"/><rect id="svg_139" width="7" height="7" x="157" y="113" fill="#000" shape-rendering="optimizeSpeed"/><rect id="svg_140" width="7" height="7" x="164" y="113" fill="#000" shape-rendering="optimizeSpeed"/><rect id="svg_141" width="7" height="7" x="185" y="113" fill="#000" shape-rendering="optimizeSpeed"/><rect id="svg_142" width="7" height="7" x="192" y="113" fill="#000" shape-rendering="optimizeSpeed"/><rect id="svg_143" width="7" height="7" x="38" y="120" fill="#000" shape-rendering="optimizeSpeed"/><rect id="svg_144" width="7" height="7" x="59" y="120" fill="#000" shape-rendering="optimizeSpeed"/><rect id="svg_145" width="7" height="7" x="73" y="120" fill="#000" shape-rendering="optimizeSpeed"/><rect id="svg_146" width="7" height="7" x="80" y="120" fill="#000" shape-rendering="optimizeSpeed"/><rect id="svg_147" width="7" height="7" x="94" y="120" fill="#000" shape-rendering="optimizeSpeed"/><rect id="svg_148" width="7" height="7" x="101" y="120" fill="#000" shape-rendering="optimizeSpeed"/><rect id="svg_149" width="7" height="7" x="115" y="120" fill="#000" shape-rendering="optimizeSpeed"/><rect id="svg_150" width="7" height="7" x="129" y="120" fill="#000" shape-rendering="optimizeSpeed"/><rect id="svg_151" width="7" height="7" x="136" y="120" fill="#000" shape-rendering="optimizeSpeed"/><rect id="svg_152" width="7" height="7" x="143" y="120" fill="#000" shape-rendering="optimizeSpeed"/><rect id="svg_153" width="7" height="7" x="150" y="120" fill="#000" shape-rendering="optimizeSpeed"/><rect id="svg_154" width="7" height="7" x="157" y="120" fill="#000" shape-rendering="optimizeSpeed"/><rect id="svg_155" width="7" height="7" x="164" y="120" fill="#000" shape-rendering="optimizeSpeed"/><rect id="svg_156" width="7" height="7" x="171" y="120" fill="#000" shape-rendering="optimizeSpeed"/><rect id="svg_157" width="7" height="7" x="178" y="120" fill="#000" shape-rendering="optimizeSpeed"/><rect id="svg_158" width="7" height="7" x="192" y="120" fill="#000" shape-rendering="optimizeSpeed"/><rect id="svg_159" width="7" height="7" x="199" y="120" fill="#000" shape-rendering="optimizeSpeed"/><rect id="svg_160" width="7" height="7" x="206" y="120" fill="#000" shape-rendering="optimizeSpeed"/><rect id="svg_161" width="7" height="7" x="45" y="127" fill="#000" shape-rendering="optimizeSpeed"/><rect id="svg_162" width="7" height="7" x="59" y="127" fill="#000" shape-rendering="optimizeSpeed"/><rect id="svg_163" width="7" height="7" x="66" y="127" fill="#000" shape-rendering="optimizeSpeed"/><rect id="svg_164" width="7" height="7" x="73" y="127" fill="#000" shape-rendering="optimizeSpeed"/><rect id="svg_165" width="7" height="7" x="101" y="127" fill="#000" shape-rendering="optimizeSpeed"/><rect id="svg_166" width="7" height="7" x="108" y="127" fill="#000" shape-rendering="optimizeSpeed"/><rect id="svg_167" width="7" height="7" x="115" y="127" fill="#000" shape-rendering="optimizeSpeed"/><rect id="svg_168" width="7" height="7" x="129" y="127" fill="#000" shape-rendering="optimizeSpeed"/><rect id="svg_169" width="7" height="7" x="136" y="127" fill="#000" shape-rendering="optimizeSpeed"/><rect id="svg_170" width="7" height="7" x="143" y="127" fill="#000" shape-rendering="optimizeSpeed"/><rect id="svg_171" width="7" height="7" x="150" y="127" fill="#000" shape-rendering="optimizeSpeed"/><rect id="svg_172" width="7" height="7" x="164" y="127" fill="#000" shape-rendering="optimizeSpeed"/><rect id="svg_173" width="7" height="7" x="171" y="127" fill="#000" shape-rendering="optimizeSpeed"/><rect id="svg_174" width="7" height="7" x="178" y="127" fill="#000" shape-rendering="optimizeSpeed"/><rect id="svg_175" width="7" height="7" x="206" y="127" fill="#000" shape-rendering="optimizeSpeed"/><rect id="svg_176" width="7" height="7" x="45" y="134" fill="#000" shape-rendering="optimizeSpeed"/><rect id="svg_177" width="7" height="7" x="52" y="134" fill="#000" shape-rendering="optimizeSpeed"/><rect id="svg_178" width="7" height="7" x="66" y="134" fill="#000" shape-rendering="optimizeSpeed"/><rect id="svg_179" width="7" height="7" x="80" y="134" fill="#000" shape-rendering="optimizeSpeed"/><rect id="svg_180" width="7" height="7" x="101" y="134" fill="#000" shape-rendering="optimizeSpeed"/><rect id="svg_181" width="7" height="7" x="122" y="134" fill="#000" shape-rendering="optimizeSpeed"/><rect id="svg_182" width="7" height="7" x="129" y="134" fill="#000" shape-rendering="optimizeSpeed"/><rect id="svg_183" width="7" height="7" x="157" y="134" fill="#000" shape-rendering="optimizeSpeed"/><rect id="svg_184" width="7" height="7" x="178" y="134" fill="#000" shape-rendering="optimizeSpeed"/><rect id="svg_185" width="7" height="7" x="192" y="134" fill="#000" shape-rendering="optimizeSpeed"/><rect id="svg_186" width="7" height="7" x="199" y="134" fill="#000" shape-rendering="optimizeSpeed"/><rect id="svg_187" width="7" height="7" x="38" y="141" fill="#000" shape-rendering="optimizeSpeed"/><rect id="svg_188" width="7" height="7" x="52" y="141" fill="#000" shape-rendering="optimizeSpeed"/><rect id="svg_189" width="7" height="7" x="66" y="141" fill="#000" shape-rendering="optimizeSpeed"/><rect id="svg_190" width="7" height="7" x="73" y="141" fill="#000" shape-rendering="optimizeSpeed"/><rect id="svg_191" width="7" height="7" x="87" y="141" fill="#000" shape-rendering="optimizeSpeed"/><rect id="svg_192" width="7" height="7" x="94" y="141" fill="#000" shape-rendering="optimizeSpeed"/><rect id="svg_193" width="7" height="7" x="101" y="141" fill="#000" shape-rendering="optimizeSpeed"/><rect id="svg_194" width="7" height="7" x="108" y="141" fill="#000" shape-rendering="optimizeSpeed"/><rect id="svg_195" width="7" height="7" x="122" y="141" fill="#000" shape-rendering="optimizeSpeed"/><rect id="svg_196" width="7" height="7" x="136" y="141" fill="#000" shape-rendering="optimizeSpeed"/><rect id="svg_197" width="7" height="7" x="143" y="141" fill="#000" shape-rendering="optimizeSpeed"/><rect id="svg_198" width="7" height="7" x="157" y="141" fill="#000" shape-rendering="optimizeSpeed"/><rect id="svg_199" width="7" height="7" x="171" y="141" fill="#000" shape-rendering="optimizeSpeed"/><rect id="svg_200" width="7" height="7" x="178" y="141" fill="#000" shape-rendering="optimizeSpeed"/><rect id="svg_201" width="7" height="7" x="206" y="141" fill="#000" shape-rendering="optimizeSpeed"/><rect id="svg_202" width="7" height="7" x="59" y="148" fill="#000" shape-rendering="optimizeSpeed"/><rect id="svg_203" width="7" height="7" x="66" y="148" fill="#000" shape-rendering="optimizeSpeed"/><rect id="svg_204" width="7" height="7" x="80" y="148" fill="#000" shape-rendering="optimizeSpeed"/><rect id="svg_205" width="7" height="7" x="94" y="148" fill="#000" shape-rendering="optimizeSpeed"/><rect id="svg_206" width="7" height="7" x="101" y="148" fill="#000" shape-rendering="optimizeSpeed"/><rect id="svg_207" width="7" height="7" x="108" y="148" fill="#000" shape-rendering="optimizeSpeed"/><rect id="svg_208" width="7" height="7" x="115" y="148" fill="#000" shape-rendering="optimizeSpeed"/><rect id="svg_209" width="7" height="7" x="129" y="148" fill="#000" shape-rendering="optimizeSpeed"/><rect id="svg_210" width="7" height="7" x="143" y="148" fill="#000" shape-rendering="optimizeSpeed"/><rect id="svg_211" width="7" height="7" x="150" y="148" fill="#000" shape-rendering="optimizeSpeed"/><rect id="svg_212" width="7" height="7" x="157" y="148" fill="#000" shape-rendering="optimizeSpeed"/><rect id="svg_213" width="7" height="7" x="164" y="148" fill="#000" shape-rendering="optimizeSpeed"/><rect id="svg_214" width="7" height="7" x="171" y="148" fill="#000" shape-rendering="optimizeSpeed"/><rect id="svg_215" width="7" height="7" x="178" y="148" fill="#000" shape-rendering="optimizeSpeed"/><rect id="svg_216" width="7" height="7" x="185" y="148" fill="#000" shape-rendering="optimizeSpeed"/><rect id="svg_217" width="7" height="7" x="192" y="148" fill="#000" shape-rendering="optimizeSpeed"/><rect id="svg_218" width="7" height="7" x="199" y="148" fill="#000" shape-rendering="optimizeSpeed"/><rect id="svg_219" width="7" height="7" x="206" y="148" fill="#000" shape-rendering="optimizeSpeed"/><rect id="svg_220" width="7" height="7" x="94" y="155" fill="#000" shape-rendering="optimizeSpeed"/><rect id="svg_221" width="7" height="7" x="108" y="155" fill="#000" shape-rendering="optimizeSpeed"/><rect id="svg_222" width="7" height="7" x="122" y="155" fill="#000" shape-rendering="optimizeSpeed"/><rect id="svg_223" width="7" height="7" x="150" y="155" fill="#000" shape-rendering="optimizeSpeed"/><rect id="svg_224" width="7" height="7" x="178" y="155" fill="#000" shape-rendering="optimizeSpeed"/><rect id="svg_225" width="7" height="7" x="192" y="155" fill="#000" shape-rendering="optimizeSpeed"/><rect id="svg_226" width="7" height="7" x="206" y="155" fill="#000" shape-rendering="optimizeSpeed"/><rect id="svg_227" width="7" height="7" x="38" y="162" fill="#000" shape-rendering="optimizeSpeed"/><rect id="svg_228" width="7" height="7" x="45" y="162" fill="#000" shape-rendering="optimizeSpeed"/><rect id="svg_229" width="7" height="7" x="52" y="162" fill="#000" shape-rendering="optimizeSpeed"/><rect id="svg_230" width="7" height="7" x="59" y="162" fill="#000" shape-rendering="optimizeSpeed"/><rect id="svg_231" width="7" height="7" x="66" y="162" fill="#000" shape-rendering="optimizeSpeed"/><rect id="svg_232" width="7" height="7" x="73" y="162" fill="#000" shape-rendering="optimizeSpeed"/><rect id="svg_233" width="7" height="7" x="80" y="162" fill="#000" shape-rendering="optimizeSpeed"/><rect id="svg_234" width="7" height="7" x="101" y="162" fill="#000" shape-rendering="optimizeSpeed"/><rect id="svg_235" width="7" height="7" x="108" y="162" fill="#000" shape-rendering="optimizeSpeed"/><rect id="svg_236" width="7" height="7" x="115" y="162" fill="#000" shape-rendering="optimizeSpeed"/><rect id="svg_237" width="7" height="7" x="122" y="162" fill="#000" shape-rendering="optimizeSpeed"/><rect id="svg_238" width="7" height="7" x="129" y="162" fill="#000" shape-rendering="optimizeSpeed"/><rect id="svg_239" width="7" height="7" x="136" y="162" fill="#000" shape-rendering="optimizeSpeed"/><rect id="svg_240" width="7" height="7" x="150" y="162" fill="#000" shape-rendering="optimizeSpeed"/><rect id="svg_241" width="7" height="7" x="164" y="162" fill="#000" shape-rendering="optimizeSpeed"/><rect id="svg_242" width="7" height="7" x="178" y="162" fill="#000" shape-rendering="optimizeSpeed"/><rect id="svg_243" width="7" height="7" x="192" y="162" fill="#000" shape-rendering="optimizeSpeed"/><rect id="svg_244" width="7" height="7" x="199" y="162" fill="#000" shape-rendering="optimizeSpeed"/><rect id="svg_245" width="7" height="7" x="206" y="162" fill="#000" shape-rendering="optimizeSpeed"/><rect id="svg_246" width="7" height="7" x="38" y="169" fill="#000" shape-rendering="optimizeSpeed"/><rect id="svg_247" width="7" height="7" x="80" y="169" fill="#000" shape-rendering="optimizeSpeed"/><rect id="svg_248" width="7" height="7" x="101" y="169" fill="#000" shape-rendering="optimizeSpeed"/><rect id="svg_249" width="7" height="7" x="108" y="169" fill="#000" shape-rendering="optimizeSpeed"/><rect id="svg_250" width="7" height="7" x="122" y="169" fill="#000" shape-rendering="optimizeSpeed"/><rect id="svg_251" width="7" height="7" x="143" y="169" fill="#000" shape-rendering="optimizeSpeed"/><rect id="svg_252" width="7" height="7" x="150" y="169" fill="#000" shape-rendering="optimizeSpeed"/><rect id="svg_253" width="7" height="7" x="178" y="169" fill="#000" shape-rendering="optimizeSpeed"/><rect id="svg_254" width="7" height="7" x="199" y="169" fill="#000" shape-rendering="optimizeSpeed"/><rect id="svg_255" width="7" height="7" x="206" y="169" fill="#000" shape-rendering="optimizeSpeed"/><rect id="svg_256" width="7" height="7" x="38" y="176" fill="#000" shape-rendering="optimizeSpeed"/><rect id="svg_257" width="7" height="7" x="52" y="176" fill="#000" shape-rendering="optimizeSpeed"/><rect id="svg_258" width="7" height="7" x="59" y="176" fill="#000" shape-rendering="optimizeSpeed"/><rect id="svg_259" width="7" height="7" x="66" y="176" fill="#000" shape-rendering="optimizeSpeed"/><rect id="svg_260" width="7" height="7" x="80" y="176" fill="#000" shape-rendering="optimizeSpeed"/><rect id="svg_261" width="7" height="7" x="101" y="176" fill="#000" shape-rendering="optimizeSpeed"/><rect id="svg_262" width="7" height="7" x="115" y="176" fill="#000" shape-rendering="optimizeSpeed"/><rect id="svg_263" width="7" height="7" x="122" y="176" fill="#000" shape-rendering="optimizeSpeed"/><rect id="svg_264" width="7" height="7" x="129" y="176" fill="#000" shape-rendering="optimizeSpeed"/><rect id="svg_265" width="7" height="7" x="150" y="176" fill="#000" shape-rendering="optimizeSpeed"/><rect id="svg_266" width="7" height="7" x="157" y="176" fill="#000" shape-rendering="optimizeSpeed"/><rect id="svg_267" width="7" height="7" x="164" y="176" fill="#000" shape-rendering="optimizeSpeed"/><rect id="svg_268" width="7" height="7" x="171" y="176" fill="#000" shape-rendering="optimizeSpeed"/><rect id="svg_269" width="7" height="7" x="178" y="176" fill="#000" shape-rendering="optimizeSpeed"/><rect id="svg_270" width="7" height="7" x="185" y="176" fill="#000" shape-rendering="optimizeSpeed"/><rect id="svg_271" width="7" height="7" x="199" y="176" fill="#000" shape-rendering="optimizeSpeed"/><rect id="svg_272" width="7" height="7" x="38" y="183" fill="#000" shape-rendering="optimizeSpeed"/><rect id="svg_273" width="7" height="7" x="52" y="183" fill="#000" shape-rendering="optimizeSpeed"/><rect id="svg_274" width="7" height="7" x="59" y="183" fill="#000" shape-rendering="optimizeSpeed"/><rect id="svg_275" width="7" height="7" x="66" y="183" fill="#000" shape-rendering="optimizeSpeed"/><rect id="svg_276" width="7" height="7" x="80" y="183" fill="#000" shape-rendering="optimizeSpeed"/><rect id="svg_277" width="7" height="7" x="94" y="183" fill="#000" shape-rendering="optimizeSpeed"/><rect id="svg_278" width="7" height="7" x="101" y="183" fill="#000" shape-rendering="optimizeSpeed"/><rect id="svg_279" width="7" height="7" x="122" y="183" fill="#000" shape-rendering="optimizeSpeed"/><rect id="svg_280" width="7" height="7" x="129" y="183" fill="#000" shape-rendering="optimizeSpeed"/><rect id="svg_281" width="7" height="7" x="143" y="183" fill="#000" shape-rendering="optimizeSpeed"/><rect id="svg_282" width="7" height="7" x="150" y="183" fill="#000" shape-rendering="optimizeSpeed"/><rect id="svg_283" width="7" height="7" x="164" y="183" fill="#000" shape-rendering="optimizeSpeed"/><rect id="svg_284" width="7" height="7" x="178" y="183" fill="#000" shape-rendering="optimizeSpeed"/><rect id="svg_285" width="7" height="7" x="185" y="183" fill="#000" shape-rendering="optimizeSpeed"/><rect id="svg_286" width="7" height="7" x="192" y="183" fill="#000" shape-rendering="optimizeSpeed"/><rect id="svg_287" width="7" height="7" x="199" y="183" fill="#000" shape-rendering="optimizeSpeed"/><rect id="svg_288" width="7" height="7" x="206" y="183" fill="#000" shape-rendering="optimizeSpeed"/><rect id="svg_289" width="7" height="7" x="38" y="190" fill="#000" shape-rendering="optimizeSpeed"/><rect id="svg_290" width="7" height="7" x="52" y="190" fill="#000" shape-rendering="optimizeSpeed"/><rect id="svg_291" width="7" height="7" x="59" y="190" fill="#000" shape-rendering="optimizeSpeed"/><rect id="svg_292" width="7" height="7" x="66" y="190" fill="#000" shape-rendering="optimizeSpeed"/><rect id="svg_293" width="7" height="7" x="80" y="190" fill="#000" shape-rendering="optimizeSpeed"/><rect id="svg_294" width="7" height="7" x="94" y="190" fill="#000" shape-rendering="optimizeSpeed"/><rect id="svg_295" width="7" height="7" x="108" y="190" fill="#000" shape-rendering="optimizeSpeed"/><rect id="svg_296" width="7" height="7" x="115" y="190" fill="#000" shape-rendering="optimizeSpeed"/><rect id="svg_297" width="7" height="7" x="122" y="190" fill="#000" shape-rendering="optimizeSpeed"/><rect id="svg_298" width="7" height="7" x="129" y="190" fill="#000" shape-rendering="optimizeSpeed"/><rect id="svg_299" width="7" height="7" x="157" y="190" fill="#000" shape-rendering="optimizeSpeed"/><rect id="svg_300" width="7" height="7" x="164" y="190" fill="#000" shape-rendering="optimizeSpeed"/><rect id="svg_301" width="7" height="7" x="178" y="190" fill="#000" shape-rendering="optimizeSpeed"/><rect id="svg_302" width="7" height="7" x="192" y="190" fill="#000" shape-rendering="optimizeSpeed"/><rect id="svg_303" width="7" height="7" x="199" y="190" fill="#000" shape-rendering="optimizeSpeed"/><rect id="svg_304" width="7" height="7" x="38" y="197" fill="#000" shape-rendering="optimizeSpeed"/><rect id="svg_305" width="7" height="7" x="80" y="197" fill="#000" shape-rendering="optimizeSpeed"/><rect id="svg_306" width="7" height="7" x="94" y="197" fill="#000" shape-rendering="optimizeSpeed"/><rect id="svg_307" width="7" height="7" x="101" y="197" fill="#000" shape-rendering="optimizeSpeed"/><rect id="svg_308" width="7" height="7" x="108" y="197" fill="#000" shape-rendering="optimizeSpeed"/><rect id="svg_309" width="7" height="7" x="157" y="197" fill="#000" shape-rendering="optimizeSpeed"/><rect id="svg_310" width="7" height="7" x="164" y="197" fill="#000" shape-rendering="optimizeSpeed"/><rect id="svg_311" width="7" height="7" x="178" y="197" fill="#000" shape-rendering="optimizeSpeed"/><rect id="svg_312" width="7" height="7" x="192" y="197" fill="#000" shape-rendering="optimizeSpeed"/><rect id="svg_313" width="7" height="7" x="38" y="204" fill="#000" shape-rendering="optimizeSpeed"/><rect id="svg_314" width="7" height="7" x="45" y="204" fill="#000" shape-rendering="optimizeSpeed"/><rect id="svg_315" width="7" height="7" x="52" y="204" fill="#000" shape-rendering="optimizeSpeed"/><rect id="svg_316" width="7" height="7" x="59" y="204" fill="#000" shape-rendering="optimizeSpeed"/><rect id="svg_317" width="7" height="7" x="66" y="204" fill="#000" shape-rendering="optimizeSpeed"/><rect id="svg_318" width="7" height="7" x="73" y="204" fill="#000" shape-rendering="optimizeSpeed"/><rect id="svg_319" width="7" height="7" x="80" y="204" fill="#000" shape-rendering="optimizeSpeed"/><rect id="svg_320" width="7" height="7" x="94" y="204" fill="#000" shape-rendering="optimizeSpeed"/><rect id="svg_321" width="7" height="7" x="108" y="204" fill="#000" shape-rendering="optimizeSpeed"/><rect id="svg_322" width="7" height="7" x="122" y="204" fill="#000" shape-rendering="optimizeSpeed"/><rect id="svg_323" width="7" height="7" x="136" y="204" fill="#000" shape-rendering="optimizeSpeed"/><rect id="svg_324" width="7" height="7" x="171" y="204" fill="#000" shape-rendering="optimizeSpeed"/><rect id="svg_325" width="7" height="7" x="178" y="204" fill="#000" shape-rendering="optimizeSpeed"/><rect id="svg_326" width="7" height="7" x="185" y="204" fill="#000" shape-rendering="optimizeSpeed"/><rect id="svg_327" width="7" height="7" x="192" y="204" fill="#000" shape-rendering="optimizeSpeed"/><rect id="svg_328" width="7" height="7" x="199" y="204" fill="#000" shape-rendering="optimizeSpeed"/><rect id="svg_329" width="7" height="7" x="206" y="204" fill="#000" shape-rendering="optimizeSpeed"/></g></svg>