<svg xmlns="http://www.w3.org/2000/svg" xmlns:xlink="http://www.w3.org/1999/xlink" width="256" height="256" version="1.1" viewBox="0 0 256 256"><title>build-router-wait-stepicon</title><desc>Created with Sketch.</desc><defs><linearGradient id="linearGradient-1" x1="0%" x2="100%" y1="100%" y2="0%"><stop offset="0%" stop-color="#0DD3C5"/><stop offset="100%" stop-color="#0D83CD"/></linearGradient><linearGradient id="linearGradient-2" x1="-24.496%" x2="96.795%" y1="123.982%" y2="6.149%"><stop offset="0%" stop-color="#FFF" stop-opacity=".399"/><stop offset="100%" stop-color="#FFF"/></linearGradient></defs><g id="New-Icons" fill="none" fill-rule="evenodd" stroke="none" stroke-width="1"><g id="Build-Router-Wait"><g id="build-router-wait-stepicon"><rect id="Rectangle-path" width="256" height="256" x="0" y="0" fill="url(#linearGradient-1)" fill-rule="nonzero"/><path id="Combined-Shape" fill="url(#linearGradient-2)" d="M211.535567,73.5350528 C209.755815,83.2993449 202.538096,91.6574038 192.314444,94.3968232 C186.902155,95.8470417 181.432104,95.5123724 176.529256,93.7536385 L94.6285959,175.654297 C94.8283689,176.161345 95.0139058,176.677684 95.1845906,177.202998 C99.707223,191.122229 92.0897746,206.072313 78.1705433,210.594946 C68.6183256,213.698649 58.5806242,211.084941 51.7607251,204.640739 L71.2026894,198.323662 L72.4579294,184.764774 L63.7862815,175.498305 L43.6896821,182.028086 C44.9559711,172.184031 51.7263714,163.45968 61.7926426,160.18895 C68.0817825,158.145485 74.5813723,158.580432 80.2344768,160.955256 L161.357041,79.832692 C160.751948,78.5068097 160.248459,77.1130754 159.858705,75.6584935 C156.070747,61.5216418 164.460183,46.9907124 178.597034,43.2027544 C188.298596,40.6032287 198.185751,43.7386879 204.65904,50.5309844 L184.91311,55.8218904 L182.949973,69.2965021 L191.124767,79.0041102 L211.535567,73.5350528 Z"/><g id="icon-/-stopwatch" fill="#760FC3" fill-rule="nonzero" transform="translate(50.000000, 50.000000)"><path id="Oval-3" d="M78,136 C110.032515,136 136,110.032515 136,78 C136,45.9674845 110.032515,20 78,20 C45.9674845,20 20,45.9674845 20,78 C20,110.032515 45.9674845,136 78,136 Z M78,156 C34.9217895,156 0,121.07821 0,78 C0,34.9217895 34.9217895,0 78,0 C121.07821,0 156,34.9217895 156,78 C156,121.07821 121.07821,156 78,156 Z" style="mix-blend-mode:multiply"/><polygon id="Line-Copy-3" points="88 69.967 99.407 56.659 114.593 69.675 85.593 103.508 68 97 68 39 88 39" style="mix-blend-mode:multiply"/></g></g></g></g></svg>