<svg xmlns="http://www.w3.org/2000/svg" xmlns:xlink="http://www.w3.org/1999/xlink" width="256" height="256" version="1.1" viewBox="0 0 256 256"><title>bitbucket-snippet-runner-stepicon</title><desc>Created with Sketch.</desc><defs><linearGradient id="linearGradient-1" x1="108.633%" x2="46.927%" y1="30.209%" y2="65.74%"><stop offset="18%" stop-color="#0052CC"/><stop offset="100%" stop-color="#2684FF"/></linearGradient><polygon id="path-2" points="40.667 67.466 32.533 75.54 0 43.244 32.533 10.949 40.667 19.023 16.267 43.244"/><polygon id="path-4" points="119.394 67.466 111.261 75.54 78.727 43.244 111.261 10.949 119.394 19.023 94.994 43.244"/></defs><g id="New-Icons" fill="none" fill-rule="evenodd" stroke="none" stroke-width="1"><g id="Bitbucket-Snippet-Runner"><g id="bitbucket-snippet-runner-stepicon" transform="translate(128.002124, 128.000000) rotate(-180.000000) translate(-128.002124, -128.000000) translate(0.002124, -0.000000)"><rect id="Rectangle" width="256" height="256" x="0" y="0" fill="#FFF"/><g id="Bitbucket-blue" transform="translate(148.002124, 138.000000) scale(-1, -1) translate(-148.002124, -138.000000) translate(88.002124, 84.000000)"><polygon id="Path" points="47.704 72 72.915 72 79 36 41 36"/><path id="Shape" fill="#2684FF" fill-rule="nonzero" d="M3.89443625,0 C2.75860769,-0.0143415458 1.67443436,0.474441399 0.932745207,1.33555373 C0.191056054,2.19666606 -0.132227813,3.34196222 0.049614338,4.46421709 L16.3708834,103.631985 C16.790642,106.136953 18.9468495,107.978635 21.4844965,108 L99.7842947,108 C101.688992,108.024213 103.324498,106.649186 103.629117,104.7672 L119.950386,4.48345803 C120.132228,3.36120315 119.808944,2.21590699 119.067255,1.35479466 C118.325566,0.493682332 117.241392,0.00489938702 116.105564,0.019561603 L3.89443625,0 Z M72.6206279,71.6727956 L47.6292855,71.6727956 L40.8623989,36.28872 L78.6762224,36.28872 L72.6206279,71.6727956 Z"/><path id="Path" fill="url(#linearGradient-1)" fill-rule="nonzero" d="M114,36 L78.1551621,36 L72.1396459,71.0331128 L47.313706,71.0331128 L18,105.742374 C18.929115,106.543816 20.1136951,106.989478 21.3419535,107 L99.1426298,107 C101.034721,107.023973 102.659402,105.662584 102.962005,103.799265 L114,36 Z"/></g><g id="Group" transform="translate(46.002124, 31.000000)" style="mix-blend-mode:multiply"><mask id="mask-3" fill="#fff"><use xlink:href="#path-2"/></mask><use id="icons-/-chevron-left" fill="#492F5C" xlink:href="#path-2" style="mix-blend-mode:multiply"/><polygon id="Path" fill="#492F5C" points="52.554 .644 65.211 .608 64.965 86.356 52.308 86.392" transform="translate(58.759347, 43.500000) rotate(15.000000) translate(-58.759347, -43.500000)"/><mask id="mask-5" fill="#fff"><use xlink:href="#path-4"/></mask><use id="icons-/-chevron-left" fill="#492F5C" transform="translate(99.060606, 43.244122) scale(-1, 1) translate(-99.060606, -43.244122)" xlink:href="#path-4" style="mix-blend-mode:multiply"/></g></g></g></g></svg>