<svg xmlns="http://www.w3.org/2000/svg" xmlns:xlink="http://www.w3.org/1999/xlink" width="100%" height="100%" version="1.1" viewBox="0 0 256 256" xml:space="preserve" style="fill-rule:evenodd;clip-rule:evenodd;stroke-linecap:round;stroke-linejoin:round;stroke-miterlimit:1.5"><g transform="matrix(0.894027,0,0,0.945748,8.91415,6.47423)"><rect width="286.345" height="270.685" x="-9.971" y="-6.846" style="fill:#22282d"/></g><g><path d="M217.637,112.876C217.637,69.053 179.421,33.475 132.35,33.475C85.279,33.475 47.063,69.053 47.063,112.876C47.063,136.723 58.575,159.307 78.419,174.387L72.649,210.475L103.043,187.441C112.432,190.64 122.352,192.276 132.35,192.276C179.421,192.276 217.637,156.698 217.637,112.876Z" transform="matrix(0.750406,0,0,0.723164,28.684,39.3467)" style="fill:none;stroke:#fff;stroke-width:5.43px"/><path d="M217.637,112.876C217.637,69.053 179.421,33.475 132.35,33.475C85.279,33.475 47.063,69.053 47.063,112.876C47.063,136.723 58.575,159.307 78.419,174.387L72.649,210.475L103.043,187.441C112.432,190.64 122.352,192.276 132.35,192.276C179.421,192.276 217.637,156.698 217.637,112.876Z" transform="matrix(0.750406,0,0,0.723164,28.684,39.3467)" style="fill:#fff"/></g></svg>