<svg xmlns="http://www.w3.org/2000/svg" xmlns:xlink="http://www.w3.org/1999/xlink" id="Layer_1" x="0" y="0" enable-background="new 0 0 256 256" version="1.1" viewBox="0 0 256 256" xml:space="preserve"><g><rect width="256" height="256" y="0" fill="#05005F"/></g><g><g><g><defs><path id="SVGID_2_" d="M107.1,70.1h61.3c20.3,0,36.7,16.4,36.7,36.7v61.3c0,20.3-16.4,36.7-36.7,36.7h-61.3 c-20.3,0-36.7-16.4-36.7-36.7v-61.3C70.4,86.6,86.8,70.1,107.1,70.1z"/></defs><use fill="#3498DB" overflow="visible" xlink:href="#SVGID_2_"/><clipPath id="SVGID_1_"><use overflow="visible" xlink:href="#SVGID_2_"/></clipPath><polygon fill="#3498DB" points="205 72 70 72 70 70 107.1 70 205 70" clip-path="url(#SVGID_1_)"/><rect width="135" height="1" x="70" y="72" fill="#3498DB" clip-path="url(#SVGID_1_)"/><rect width="135" height="1" x="70" y="73" fill="#3498DB" clip-path="url(#SVGID_1_)"/><rect width="135" height="2" x="70" y="74" fill="#3498DB" clip-path="url(#SVGID_1_)"/><rect width="135" height="1" x="70" y="76" fill="#3498DB" clip-path="url(#SVGID_1_)"/><rect width="135" height="2" x="70" y="77" fill="#3498DB" clip-path="url(#SVGID_1_)"/><rect width="135" height="1" x="70" y="79" fill="#3498DB" clip-path="url(#SVGID_1_)"/><rect width="135" height="2" x="70" y="80" fill="#3498DB" clip-path="url(#SVGID_1_)"/><rect width="135" height="1" x="70" y="82" fill="#3498DB" clip-path="url(#SVGID_1_)"/><rect width="135" height="2" x="70" y="83" fill="#3498DB" clip-path="url(#SVGID_1_)"/><rect width="135" height="1" x="70" y="85" fill="#3498DB" clip-path="url(#SVGID_1_)"/><rect width="135" height="2" x="70" y="86" fill="#3498DB" clip-path="url(#SVGID_1_)"/><rect width="135" height="1" x="70" y="88" fill="#3498DB" clip-path="url(#SVGID_1_)"/><rect width="135" height="1" x="70" y="89" fill="#3498DB" clip-path="url(#SVGID_1_)"/><rect width="135" height="2" x="70" y="90" fill="#3498DB" clip-path="url(#SVGID_1_)"/><rect width="135" height="1" x="70" y="92" fill="#3498DB" clip-path="url(#SVGID_1_)"/><rect width="135" height="2" x="70" y="93" fill="#3498DB" clip-path="url(#SVGID_1_)"/><rect width="135" height="1" x="70" y="95" fill="#3498DB" clip-path="url(#SVGID_1_)"/><rect width="135" height="2" x="70" y="96" fill="#3498DB" clip-path="url(#SVGID_1_)"/><rect width="135" height="1" x="70" y="98" fill="#3498DB" clip-path="url(#SVGID_1_)"/><rect width="135" height="2" x="70" y="99" fill="#3498DB" clip-path="url(#SVGID_1_)"/><rect width="135" height="1" x="70" y="101" fill="#3498DB" clip-path="url(#SVGID_1_)"/><rect width="135" height="1" x="70" y="102" fill="#3498DB" clip-path="url(#SVGID_1_)"/><rect width="135" height="2" x="70" y="103" fill="#3498DB" clip-path="url(#SVGID_1_)"/><rect width="135" height="1" x="70" y="105" fill="#3498DB" clip-path="url(#SVGID_1_)"/><rect width="135" height="2" x="70" y="106" fill="#3498DB" clip-path="url(#SVGID_1_)"/><rect width="135" height="1" x="70" y="108" fill="#3498DB" clip-path="url(#SVGID_1_)"/><rect width="135" height="2" x="70" y="109" fill="#3498DB" clip-path="url(#SVGID_1_)"/><rect width="135" height="1" x="70" y="111" fill="#3498DB" clip-path="url(#SVGID_1_)"/><rect width="135" height="2" x="70" y="112" fill="#3498DB" clip-path="url(#SVGID_1_)"/><rect width="135" height="1" x="70" y="114" fill="#3498DB" clip-path="url(#SVGID_1_)"/><rect width="135" height="1" x="70" y="115" fill="#3498DB" clip-path="url(#SVGID_1_)"/><rect width="135" height="2" x="70" y="116" fill="#3498DB" clip-path="url(#SVGID_1_)"/><rect width="135" height="1" x="70" y="118" fill="#3498DB" clip-path="url(#SVGID_1_)"/><rect width="135" height="2" x="70" y="119" fill="#3498DB" clip-path="url(#SVGID_1_)"/><rect width="135" height="1" x="70" y="121" fill="#3498DB" clip-path="url(#SVGID_1_)"/><rect width="135" height="2" x="70" y="122" fill="#3498DB" clip-path="url(#SVGID_1_)"/><rect width="135" height="1" x="70" y="124" fill="#3498DB" clip-path="url(#SVGID_1_)"/><rect width="135" height="2" x="70" y="125" fill="#3498DB" clip-path="url(#SVGID_1_)"/><rect width="135" height="1" x="70" y="127" fill="#3498DB" clip-path="url(#SVGID_1_)"/><rect width="135" height="1" x="70" y="128" fill="#3498DB" clip-path="url(#SVGID_1_)"/><rect width="135" height="2" x="70" y="129" fill="#3498DB" clip-path="url(#SVGID_1_)"/><rect width="135" height="1" x="70" y="131" fill="#3498DB" clip-path="url(#SVGID_1_)"/><rect width="135" height="2" x="70" y="132" fill="#3498DB" clip-path="url(#SVGID_1_)"/><rect width="135" height="1" x="70" y="134" fill="#3498DB" clip-path="url(#SVGID_1_)"/><rect width="135" height="2" x="70" y="135" fill="#3498DB" clip-path="url(#SVGID_1_)"/><rect width="135" height="1" x="70" y="137" fill="#3498DB" clip-path="url(#SVGID_1_)"/><rect width="135" height="2" x="70" y="138" fill="#3498DB" clip-path="url(#SVGID_1_)"/><rect width="135" height="1" x="70" y="140" fill="#3498DB" clip-path="url(#SVGID_1_)"/><rect width="135" height="2" x="70" y="141" fill="#3498DB" clip-path="url(#SVGID_1_)"/><rect width="135" height="1" x="70" y="143" fill="#3498DB" clip-path="url(#SVGID_1_)"/><rect width="135" height="1" x="70" y="144" fill="#3498DB" clip-path="url(#SVGID_1_)"/><rect width="135" height="2" x="70" y="145" fill="#3498DB" clip-path="url(#SVGID_1_)"/><rect width="135" height="1" x="70" y="147" fill="#3498DB" clip-path="url(#SVGID_1_)"/><rect width="135" height="2" x="70" y="148" fill="#3498DB" clip-path="url(#SVGID_1_)"/><rect width="135" height="1" x="70" y="150" fill="#3498DB" clip-path="url(#SVGID_1_)"/><rect width="135" height="2" x="70" y="151" fill="#3498DB" clip-path="url(#SVGID_1_)"/><rect width="135" height="1" x="70" y="153" fill="#3498DB" clip-path="url(#SVGID_1_)"/><rect width="135" height="2" x="70" y="154" fill="#3498DB" clip-path="url(#SVGID_1_)"/><rect width="135" height="1" x="70" y="156" fill="#3498DB" clip-path="url(#SVGID_1_)"/><rect width="135" height="1" x="70" y="157" fill="#3498DB" clip-path="url(#SVGID_1_)"/><rect width="135" height="2" x="70" y="158" fill="#3498DB" clip-path="url(#SVGID_1_)"/><rect width="135" height="1" x="70" y="160" fill="#3498DB" clip-path="url(#SVGID_1_)"/><rect width="135" height="2" x="70" y="161" fill="#3498DB" clip-path="url(#SVGID_1_)"/><rect width="135" height="1" x="70" y="163" fill="#3498DB" clip-path="url(#SVGID_1_)"/><rect width="135" height="2" x="70" y="164" fill="#3498DB" clip-path="url(#SVGID_1_)"/><rect width="135" height="1" x="70" y="166" fill="#3498DB" clip-path="url(#SVGID_1_)"/><rect width="135" height="2" x="70" y="167" fill="#3498DB" clip-path="url(#SVGID_1_)"/><rect width="135" height="1" x="70" y="169" fill="#3498DB" clip-path="url(#SVGID_1_)"/><rect width="135" height="1" x="70" y="170" fill="#3498DB" clip-path="url(#SVGID_1_)"/><rect width="135" height="2" x="70" y="171" fill="#3498DB" clip-path="url(#SVGID_1_)"/><rect width="135" height="1" x="70" y="173" fill="#3498DB" clip-path="url(#SVGID_1_)"/><rect width="135" height="2" x="70" y="174" fill="#3498DB" clip-path="url(#SVGID_1_)"/><rect width="135" height="1" x="70" y="176" fill="#3498DB" clip-path="url(#SVGID_1_)"/><rect width="135" height="2" x="70" y="177" fill="#3498DB" clip-path="url(#SVGID_1_)"/><rect width="135" height="1" x="70" y="179" fill="#3498DB" clip-path="url(#SVGID_1_)"/><rect width="135" height="2" x="70" y="180" fill="#3498DB" clip-path="url(#SVGID_1_)"/><rect width="135" height="1" x="70" y="182" fill="#3498DB" clip-path="url(#SVGID_1_)"/><rect width="135" height="1" x="70" y="183" fill="#3498DB" clip-path="url(#SVGID_1_)"/><rect width="135" height="2" x="70" y="184" fill="#3498DB" clip-path="url(#SVGID_1_)"/><rect width="135" height="1" x="70" y="186" fill="#3498DB" clip-path="url(#SVGID_1_)"/><rect width="135" height="2" x="70" y="187" fill="#3498DB" clip-path="url(#SVGID_1_)"/><rect width="135" height="1" x="70" y="189" fill="#3498DB" clip-path="url(#SVGID_1_)"/><rect width="135" height="2" x="70" y="190" fill="#3498DB" clip-path="url(#SVGID_1_)"/><rect width="135" height="1" x="70" y="192" fill="#3498DB" clip-path="url(#SVGID_1_)"/><rect width="135" height="2" x="70" y="193" fill="#3498DB" clip-path="url(#SVGID_1_)"/><rect width="135" height="1" x="70" y="195" fill="#3498DB" clip-path="url(#SVGID_1_)"/><rect width="135" height="2" x="70" y="196" fill="#3498DB" clip-path="url(#SVGID_1_)"/><rect width="135" height="1" x="70" y="198" fill="#3498DB" clip-path="url(#SVGID_1_)"/><rect width="135" height="1" x="70" y="199" fill="#3498DB" clip-path="url(#SVGID_1_)"/><rect width="135" height="2" x="70" y="200" fill="#3498DB" clip-path="url(#SVGID_1_)"/><rect width="135" height="1" x="70" y="202" fill="#3498DB" clip-path="url(#SVGID_1_)"/><polygon fill="#3498DB" points="205 205 168.3 205 70 205 70 203 205 203" clip-path="url(#SVGID_1_)"/></g></g><g><circle cx="160.6" cy="159.1" r="28.8" fill="#FFF"/></g><g><circle cx="107.8" cy="108.5" r="15.2" fill="#FFF"/></g><g><g><defs><circle id="SVGID_4_" cx="63.9" cy="63.7" r="12.9"/></defs><use fill="#3498DB" overflow="visible" xlink:href="#SVGID_4_"/><clipPath id="SVGID_3_"><use overflow="visible" xlink:href="#SVGID_4_"/></clipPath><polygon fill="#3498DB" points="51 76 77 76 77 77 63.9 77 51 77" clip-path="url(#SVGID_3_)"/><rect width="26" height="1" x="51" y="75" fill="#3498DB" clip-path="url(#SVGID_3_)"/><rect width="26" height="1" x="51" y="74" fill="#3498DB" clip-path="url(#SVGID_3_)"/><rect width="26" height="1" x="51" y="73" fill="#3498DB" clip-path="url(#SVGID_3_)"/><rect width="26" height="1" x="51" y="72" fill="#3498DB" clip-path="url(#SVGID_3_)"/><rect width="26" height="1" x="51" y="71" fill="#3498DB" clip-path="url(#SVGID_3_)"/><rect width="26" height="1" x="51" y="70" fill="#3498DB" clip-path="url(#SVGID_3_)"/><rect width="26" height="1" x="51" y="69" fill="#3498DB" clip-path="url(#SVGID_3_)"/><rect width="26" height="1" x="51" y="68" fill="#3498DB" clip-path="url(#SVGID_3_)"/><rect width="26" height="1" x="51" y="67" fill="#3498DB" clip-path="url(#SVGID_3_)"/><rect width="26" height="1" x="51" y="66" fill="#3498DB" clip-path="url(#SVGID_3_)"/><rect width="26" height="1" x="51" y="65" fill="#3498DB" clip-path="url(#SVGID_3_)"/><rect width="26" height="1" x="51" y="64" fill="#3498DB" clip-path="url(#SVGID_3_)"/><rect width="26" height="1" x="51" y="63" fill="#3498DB" clip-path="url(#SVGID_3_)"/><rect width="26" height="1" x="51" y="62" fill="#3498DB" clip-path="url(#SVGID_3_)"/><rect width="26" height="1" x="51" y="61" fill="#3498DB" clip-path="url(#SVGID_3_)"/><rect width="26" height="1" x="51" y="60" fill="#3498DB" clip-path="url(#SVGID_3_)"/><rect width="26" height="1" x="51" y="59" fill="#3498DB" clip-path="url(#SVGID_3_)"/><rect width="26" height="1" x="51" y="58" fill="#3498DB" clip-path="url(#SVGID_3_)"/><rect width="26" height="1" x="51" y="57" fill="#3498DB" clip-path="url(#SVGID_3_)"/><rect width="26" height="1" x="51" y="56" fill="#3498DB" clip-path="url(#SVGID_3_)"/><rect width="26" height="1" x="51" y="55" fill="#3498DB" clip-path="url(#SVGID_3_)"/><rect width="26" height="1" x="51" y="54" fill="#3498DB" clip-path="url(#SVGID_3_)"/><rect width="26" height="1" x="51" y="53" fill="#3498DB" clip-path="url(#SVGID_3_)"/><rect width="26" height="1" x="51" y="52" fill="#3498DB" clip-path="url(#SVGID_3_)"/><rect width="26" height="1" x="51" y="51" fill="#3498DB" clip-path="url(#SVGID_3_)"/></g></g></g></svg>