<svg xmlns="http://www.w3.org/2000/svg" id="Layer_1" data-name="Layer 1" viewBox="0 0 256 256"><defs><style>.cls-1{fill:#f6a81c}.cls-2{fill:#fff}</style></defs><title>Artboard 104</title><rect width="256" height="256" class="cls-1"/><g id="polygon287"><path d="M62.34,171.35,46.4,178.2l14.76,6.31,17.12-6.31Zm-24,8.56-.53,30.81L61.16,221V189Zm47.93,0-21.08,8V218.1l21.08-8.56Z" class="cls-2"/></g><g id="polygon311"><path d="M201.45,76l-16,6.85,14.87,6.31,17.12-6.31Zm-22.25,9.09V116l19.9,5.78.64-28Zm44.51,1.71-18.83,8v30.28l18.83-8.56Z" class="cls-2"/></g><g id="polygon311-2" data-name="polygon311"><path d="M201.45,164l-16,6.85,14.87,6.31,17.12-6.31Zm-22.25,9.09V204l19.9,5.78.64-28Zm44.51,1.71-18.83,8v30.28l18.83-8.56Z" class="cls-2"/></g><g id="use3387"><path d="M57.08,68.41,41.13,75.26,55.9,81.57,73,75.26ZM33.11,77l-.53,30.81L55.9,118.06v-32ZM81,77,60,85v30.17L81,106.61Z" class="cls-2"/></g><g id="use3389"><path d="M130.43,26.28l-15.94,6.85,14.76,6.31,17.12-6.31Zm-24,8.56-.53,30.81,23.32,10.27v-32Zm47.93,0-21.08,8V73l21.08-8.56Z" class="cls-2"/></g><g id="use3391"><path d="M130.61,114l-15.94,6.85,14.76,6.31,17.12-6.31Zm-24,8.56-.53,30.81,23.32,10.27v-32Zm47.93,0-21.08,8V160.8l21.08-8.56Z" class="cls-2"/></g></svg>