<svg xmlns="http://www.w3.org/2000/svg" width="415" height="415"><g><title>background</title><rect id="canvas_background" width="417" height="417" x="-1" y="-1" fill="#999"/><g id="canvasGrid" width="100%" height="100%" x="0" y="0" display="none"><rect width="100%" height="100%" x="0" y="0" fill="url(#gridpattern)" stroke-width="0"/></g></g><g><title>Layer 1</title><path id="svg_2" fill="#fff" fill-opacity="null" stroke="#000" stroke-opacity="null" stroke-width="1.5" d="m207.49999,27.487486c-62.408096,0 -112.999999,50.591984 -112.999999,112.999999c0,62.409398 50.591902,113.000026 112.999999,113.000026c62.409443,0 113.000026,-50.590619 113.000026,-113.000026c0,-62.408015 -50.590583,-112.999999 -113.000026,-112.999999zm-9.664357,50.801088l18.815559,0l0,20.01373l-18.815559,0l0,-20.01373zm31.138788,121.460101l-20.695897,0c-8.040466,0 -11.469076,-3.421107 -11.469076,-11.632176l0,-53.373926c0,-2.565525 -1.367273,-3.763705 -3.76224,-3.763705l-6.842214,0l0,-18.480401l20.697353,0c8.046432,0 11.460162,3.591637 11.460162,11.630684l0,53.545903c0,2.402462 1.367282,3.763777 3.76224,3.763777l6.842295,0l0,18.309834l0.007377,0l0,0.000009z" opacity=".75"/><text id="svg_3" x="138.57" y="355.5" fill="#fff" stroke="#000" stroke-opacity="null" stroke-width="0" font-family="'Trebuchet MS', Gadget, sans-serif" font-size="92" font-weight="bold" text-anchor="start" xml:space="preserve">IPA</text></g></svg>