<svg xmlns="http://www.w3.org/2000/svg" id="Layer_1" data-name="Layer 1" viewBox="0 0 256 256"><defs><style>.cls-1,.cls-2{fill:#333}.cls-2,.cls-3{stroke:#67daf9;stroke-linecap:round;stroke-linejoin:round;stroke-width:5px}.cls-3{fill:none}</style></defs><title>react</title><rect width="256" height="256" class="cls-1"/><path d="M204.52,189.12a15.4,15.4,0,0,1-15.4,15.4l-51-.14-6.42-4.22a6.87,6.87,0,0,0-7.87.22l-5.42,4-51.51.14a15.4,15.4,0,0,1-15.4-15.4l0.14-51,4.22-6.42a6.87,6.87,0,0,0-.22-7.87l-4-5.42L51.48,66.88a15.4,15.4,0,0,1,15.4-15.4l51.51,0.14,5.42,4a6.87,6.87,0,0,0,7.87.22l6.42-4.22,51-.14a15.4,15.4,0,0,1,15.4,15.4l-0.14,51.51-4,5.42a6.87,6.87,0,0,0-.22,7.87l4.22,6.42Z" class="cls-2"/><line x1="128" x2="128" y1="56.97" y2="199.03" class="cls-3"/><line x1="199.03" x2="56.97" y1="128" y2="128" class="cls-3"/><path d="M190.35,83.61V73.35a7.91,7.91,0,0,0-7.91-7.91h-8.58" class="cls-3"/><line x1="164.74" x2="159.74" y1="65.44" y2="65.44" class="cls-3"/></svg>