<svg xmlns="http://www.w3.org/2000/svg" xmlns:xlink="http://www.w3.org/1999/xlink" id="Layer_1" x="0" y="0" enable-background="new 0 0 256 256" version="1.1" viewBox="0 0 256 256" xml:space="preserve"><rect width="256" height="256" x="0" fill="#E12529"/><g><path fill="#FFF" d="M128,64.1c-35.3,0-63.9,28.6-63.9,63.9s28.6,63.9,63.9,63.9c35.3,0,63.9-28.6,63.9-63.9 S163.3,64.1,128,64.1z M128,175c-26,0-47-21.1-47-47c0-26,21.1-47,47-47c26,0,47,21.1,47,47C175,154,154,175,128,175z"/><circle cx="143.9" cy="112.1" r="13.3" fill="#FFF"/><circle cx="143.9" cy="143.9" r="13.3" fill="#FFF"/><circle cx="112.1" cy="143.9" r="13.3" fill="#FFF"/><circle cx="112.1" cy="112.1" r="13.3" fill="#FFF"/></g></svg>